<svg role="img" aria-label="OKelectric" xmlns="http://www.w3.org/2000/svg" xmlns:xlink="http://www.w3.org/1999/xlink" version="1.1" viewBox="135.47 196.32 570.95 202.74"><g><path transform="matrix(1,0,0,-1,0,595.28)" d="M482.62 286.76C488.08 275.44 494.73 267.27 501.75 260.17 493.8 258.77 486.81 259.8 482.96 268.26 480.1 274.56 481.52 281.16 479.28 291.06 483.32 288.38 487.37 286.1 493.87 284.75 505.48 282.32 507.68 273.73 504.62 262.5 496.55 268.96 489.15 276.91 482.62 286.76" fill="#60b23a" fill-rule="evenodd"/><path transform="matrix(1,0,0,-1,0,595.28)" d="M512.73 255.45 517.81 250.37H140.01C138.61 250.37 137.47 251.5 137.47 252.91 137.47 254.31 138.61 255.45 140.01 255.45Z" fill="#60b23a"/><path transform="matrix(1,0,0,-1,0,595.28)" d="M618.93 264.21 622.09 269.3H670.68C671.55 269.3 672.26 268.16 672.26 266.75 672.26 265.35 671.55 264.21 670.68 264.21Z" fill="#60b23a"/><path transform="matrix(1,0,0,-1,0,595.28)" d="M674.43 283.96C665.4 284.07 657.98 276.49 657.86 267.02 657.75 257.55 664.98 249.79 674.01 249.68L684.52 249.55C686.39 249.52 687.93 251.03 687.95 252.89L687.98 255.44 689.7 255.41 689.77 260.5 688.04 260.52 688.19 272.78 689.92 272.76 689.98 277.84 688.26 277.86 688.29 280.4C688.31 282.27 686.81 283.81 684.94 283.83ZM693.67 272.71 701.83 272.61C703.23 272.6 704.38 273.73 704.4 275.12V275.12C704.42 276.52 703.29 277.68 701.89 277.7L693.73 277.8ZM693.52 260.45 701.68 260.35C703.08 260.33 704.21 259.18 704.19 257.78V257.78C704.17 256.38 703.02 255.25 701.62 255.27L693.46 255.37Z" fill="#60b23a" fill-rule="evenodd"/><path transform="matrix(1,0,0,-1,0,595.28)" d="M515.45 220.22V260.86H510.37V220.22H490.6V215.14H535.22V220.22ZM527.57 206.68V211.76H498.26V206.68ZM519.92 198.22V203.3H505.91V198.22Z" fill="#60b23a" fill-rule="evenodd"/><path transform="matrix(1,0,0,-1,0,595.28)" d="M551.01 327.72 558.65 315.95C559.16 315.16 560.22 314.94 561 315.45L570.91 321.88C571.69 322.39 571.91 323.44 571.4 324.23L563.76 336C563.25 336.78 562.2 337.01 561.41 336.5L551.51 330.06C550.72 329.56 550.5 328.5 551.01 327.72ZM561.9 310.95 569.54 299.18C570.05 298.4 571.1 298.17 571.89 298.68L581.79 305.11C582.58 305.62 582.8 306.68 582.29 307.46L574.65 319.23C574.14 320.02 573.08 320.24 572.3 319.73L562.39 313.3C561.61 312.79 561.39 311.74 561.9 310.95ZM586.79 308.36 596.69 314.79C597.48 315.3 597.7 316.35 597.19 317.14L589.55 328.91C589.04 329.69 587.99 329.92 587.2 329.41L577.29 322.97C576.51 322.47 576.29 321.41 576.8 320.63L584.44 308.86C584.95 308.07 586 307.85 586.79 308.36ZM601.69 318.03 611.6 324.47C612.38 324.98 612.6 326.03 612.09 326.81L604.45 338.59C603.94 339.37 602.89 339.59 602.1 339.08L592.2 332.65C591.41 332.14 591.19 331.09 591.7 330.31L599.34 318.53C599.85 317.75 600.9 317.52 601.69 318.03ZM601.21 343.58 593.56 355.35C593.05 356.14 592 356.36 591.21 355.85L581.31 349.42C580.52 348.91 580.3 347.85 580.81 347.07L588.45 335.3C588.96 334.52 590.02 334.29 590.8 334.8L600.71 341.23C601.49 341.74 601.71 342.8 601.21 343.58ZM576.31 346.17 566.41 339.74C565.62 339.23 565.4 338.18 565.91 337.4L573.55 325.62C574.06 324.84 575.12 324.61 575.9 325.12L585.81 331.56C586.59 332.07 586.81 333.12 586.31 333.9L578.66 345.68C578.15 346.46 577.1 346.68 576.31 346.17" fill="#005aa5" fill-rule="evenodd"/><path transform="matrix(1,0,0,-1,0,595.28)" d="M592.52 373.88V377.97H587.44V370.57L540.72 340.23V344.58H535.63V336.95H535.66L532.33 334.78C532.26 334.74 532.19 334.69 532.13 334.64L532.12 334.64 532.08 334.61 532.07 334.6 532.03 334.57 532.02 334.56 532 334.55 500.79 307.44C499.73 306.53 499.62 304.93 500.53 303.87 501.45 302.81 503.05 302.69 504.11 303.61L533.12 328.81 564.85 279.96C565.61 278.78 567.18 278.45 568.35 279.21L630.82 319.78C631.99 320.54 632.33 322.11 631.56 323.28L598.25 374.58C597.49 375.75 595.92 376.08 594.75 375.32ZM595.38 369.69 537.17 331.89 567.72 284.84 625.93 322.64ZM561.1 274.75C561.1 276.15 562.23 277.29 563.64 277.29 565.04 277.29 566.18 276.15 566.18 274.75V233.51L620.01 268.67V308.32C620.01 309.72 621.15 310.86 622.55 310.86 623.95 310.86 625.09 309.72 625.09 308.32V267.3H625.09C625.09 266.47 624.68 265.66 623.94 265.17L565.12 226.75C564.7 226.45 564.19 226.27 563.64 226.27 563.21 226.27 562.81 226.38 562.46 226.56L511.82 250.72C510.91 251.15 510.37 252.06 510.37 253.01L510.37 304.03C510.37 305.44 511.51 306.57 512.91 306.57 514.31 306.57 515.45 305.44 515.45 304.03V254.61L561.1 232.84ZM588.76 379.15H591.2V396.96H588.76ZM536.96 345.76H539.39V363.57H536.96Z" fill="#60b23a" fill-rule="evenodd"/><path transform="matrix(1,0,0,-1,0,595.28)" d="M530.17 266.95 542.49 261.2V271.53C542.49 275.65 539.72 280.32 536.33 281.9L536.33 281.9C532.94 283.48 530.17 281.4 530.17 277.27Z" fill="#e31e24" fill-rule="evenodd"/><path transform="matrix(1,0,0,-1,0,595.28)" d="M530.5 265.63 542.16 260.2C543.07 259.77 543.81 258.52 543.81 257.41V254.9L528.85 261.88V264.39C528.85 265.5 529.59 266.05 530.5 265.63" fill="#e31e24" fill-rule="evenodd"/><path transform="matrix(1,0,0,-1,0,595.28)" d="M527.81 276.96C527.81 277.76 527.38 278.6 526.85 278.85L521.93 281.14C521.41 281.39 520.98 280.94 520.98 280.15 520.98 279.36 521.41 278.51 521.93 278.26L526.85 275.97C527.38 275.72 527.81 276.17 527.81 276.96ZM528.95 282.89C529.21 283.45 529.05 284.41 528.6 285.02L524.34 290.74C523.88 291.34 523.3 291.38 523.04 290.82 522.78 290.25 522.93 289.29 523.39 288.69L527.65 282.97C528.1 282.36 528.69 282.33 528.95 282.89ZM532.07 286.16C532.52 286.35 532.68 287.16 532.42 287.97L529.95 295.58C529.69 296.38 529.11 296.89 528.66 296.71 528.2 296.52 528.05 295.71 528.31 294.9L530.77 287.3C531.03 286.49 531.62 285.98 532.07 286.16ZM536.33 285.91C536.85 285.66 537.28 286.11 537.28 286.9V294.36C537.28 295.15 536.85 296 536.33 296.25 535.81 296.49 535.38 296.04 535.38 295.25V287.79C535.38 287 535.81 286.15 536.33 285.91ZM540.59 282.19C541.04 281.58 541.63 281.55 541.89 282.11L544.35 287.42C544.61 287.98 544.46 288.95 544 289.55 543.55 290.16 542.97 290.19 542.71 289.63L540.24 284.32C539.98 283.75 540.14 282.79 540.59 282.19ZM543.71 276.01C543.97 275.2 544.56 274.69 545.01 274.87L549.27 276.61C549.73 276.8 549.88 277.61 549.62 278.42 549.36 279.22 548.78 279.74 548.32 279.55L544.06 277.81C543.61 277.63 543.45 276.81 543.71 276.01ZM544.85 269.01C544.85 268.22 545.28 267.37 545.81 267.13L550.73 264.84C551.25 264.59 551.68 265.04 551.68 265.83 551.68 266.62 551.25 267.47 550.73 267.72L545.81 270.01C545.28 270.25 544.85 269.81 544.85 269.01" fill="#e31e24" fill-rule="evenodd"/><path transform="matrix(1,0,0,-1,0,595.28)" d="M600.77 265.18C600.39 264.94 600.09 265.2 600.09 265.77 600.09 266.34 600.39 267.01 600.77 267.25L604.57 269.72C604.94 269.96 605.25 269.7 605.25 269.13 605.25 268.55 604.94 267.89 604.57 267.65ZM600.77 268.98C600.39 268.74 600.09 269 600.09 269.57 600.09 270.14 600.39 270.81 600.77 271.05L604.57 273.52C604.94 273.76 605.25 273.5 605.25 272.93 605.25 272.35 604.94 271.69 604.57 271.45ZM600.77 272.78C600.39 272.54 600.09 272.8 600.09 273.37 600.09 273.94 600.39 274.61 600.77 274.85L604.57 277.32C604.94 277.56 605.25 277.3 605.25 276.73 605.25 276.15 604.94 275.49 604.57 275.25ZM600.77 276.58C600.39 276.34 600.09 276.6 600.09 277.17 600.09 277.74 600.39 278.41 600.77 278.65L604.57 281.12C604.94 281.36 605.25 281.1 605.25 280.52 605.25 279.95 604.94 279.29 604.57 279.05ZM600.77 280.38C600.39 280.14 600.09 280.4 600.09 280.97 600.09 281.54 600.39 282.21 600.77 282.45L604.57 284.92C604.94 285.16 605.25 284.9 605.25 284.32 605.25 283.75 604.94 283.09 604.57 282.85ZM600.77 284.18C600.39 283.94 600.09 284.2 600.09 284.77 600.09 285.34 600.39 286.01 600.77 286.25L604.57 288.72C604.94 288.96 605.25 288.7 605.25 288.12 605.25 287.55 604.94 286.89 604.57 286.65ZM600.77 287.98C600.39 287.74 600.09 288 600.09 288.57 600.09 289.14 600.39 289.81 600.77 290.05L604.57 292.52C604.94 292.76 605.25 292.5 605.25 291.92 605.25 291.35 604.94 290.69 604.57 290.45ZM595.92 281.61C594.71 282.66 593.04 282.71 591.2 281.51 589.36 280.31 587.69 278.1 586.49 275.49 585.28 272.87 584.53 269.86 584.53 267.07 584.53 264.28 585.28 262.24 586.49 261.19 587.69 260.15 589.36 260.1 591.2 261.3 593.04 262.49 594.71 264.71 595.92 267.32 597.13 269.93 597.87 272.94 597.87 275.73 597.87 278.53 597.13 280.57 595.92 281.61ZM591.2 283.58C593.42 285.02 595.43 284.96 596.88 283.7 598.34 282.44 599.24 279.98 599.24 276.62 599.24 273.26 598.34 269.63 596.88 266.48 595.43 263.34 593.42 260.67 591.2 259.23 588.98 257.79 586.97 257.84 585.52 259.1 584.06 260.36 583.17 262.82 583.17 266.18 583.17 269.55 584.06 273.17 585.52 276.32 586.97 279.47 588.98 282.14 591.2 283.58ZM592.17 274.56C591.87 274.62 591.54 274.54 591.2 274.32 590.86 274.1 590.53 273.75 590.24 273.31 589.91 273.84 589.37 275.02 589.37 276.17 589.37 277.6 590.07 279.1 591.52 280.04 593.05 281.03 594.26 280.66 594.26 279.51 594.26 277.95 592.98 276.92 592.17 274.56ZM592.23 269.44C592.52 269.89 592.76 270.42 592.93 270.97 593.1 271.53 593.19 272.09 593.19 272.6 593.79 273.05 594.92 273.72 595.58 273.57 596.4 273.39 596.65 272.12 595.92 269.73 595.16 267.24 593.89 265.41 593.23 265.55 592.34 265.76 592.86 267.87 592.23 269.44ZM589.25 270.01C589.25 269.5 589.34 269.05 589.51 268.72 589.68 268.38 589.92 268.17 590.21 268.11 589.95 267.12 589.35 265.27 588.69 264.27 587.87 263.02 586.93 262.79 586.2 264.23 585.44 265.74 585.49 267.94 586.15 268.95 587.04 270.31 587.79 269.22 589.25 270.01ZM591.2 273.53C591.98 274.03 592.6 273.49 592.6 272.31 592.6 271.14 591.98 269.78 591.2 269.28 590.43 268.77 589.8 269.32 589.8 270.49 589.8 271.67 590.43 273.02 591.2 273.53ZM606.58 295.3 582.28 279.51C582.27 279.51 582.28 279.51 582.28 279.5L582.28 279.5C582.24 279.45 582.21 279.4 582.18 279.34 582.16 279.28 582.13 279.21 582.11 279.12L582.1 279.09C582.09 279.04 582.09 278.99 582.09 278.94H582.08L582.08 251.74 606.39 267.53C606.4 267.54 606.37 267.52 606.39 267.54 606.42 267.59 606.46 267.64 606.48 267.7 606.51 267.76 606.54 267.83 606.56 267.92 606.57 267.98 606.58 268.04 606.58 268.09H606.58ZM581.08 281.35 606.39 297.79C606.66 297.96 606.94 298.05 607.22 298.06 607.58 298.07 607.91 297.95 608.18 297.72L608.18 297.72C608.4 297.54 608.57 297.29 608.67 297V297C608.74 296.78 608.78 296.54 608.78 296.28H608.78V268.09H608.78C608.78 267.87 608.75 267.64 608.7 267.41 608.65 267.2 608.57 266.98 608.47 266.77 608.37 266.55 608.25 266.34 608.12 266.18 607.96 265.98 607.78 265.82 607.58 265.69L582.28 249.25C582.01 249.08 581.73 248.99 581.45 248.98 581.09 248.97 580.76 249.09 580.49 249.31 580.26 249.5 580.1 249.75 579.99 250.04 579.92 250.25 579.88 250.49 579.88 250.76H579.89V278.94H579.88C579.88 279.15 579.91 279.36 579.95 279.57L579.96 279.63C580.01 279.84 580.09 280.06 580.19 280.27 580.3 280.49 580.42 280.7 580.55 280.86L580.55 280.86 580.55 280.86C580.71 281.06 580.89 281.23 581.08 281.35" fill="#0073c6" fill-rule="evenodd"/><path transform="matrix(1,0,0,-1,0,595.28)" d="M453.45 299.46C455.17 299.46 456.67 299.28 457.95 298.92 459.23 298.56 460.23 298.05 460.93 297.4 461.64 296.75 462 295.98 462 295.08 462 294.47 461.81 293.91 461.45 293.38 461.09 292.85 460.56 292.59 459.87 292.59 459.39 292.59 458.99 292.66 458.67 292.79 458.36 292.93 458.08 293.1 457.84 293.31 457.6 293.52 457.31 293.72 456.98 293.9 456.68 294.08 456.22 294.22 455.6 294.33 454.98 294.44 454.52 294.49 454.22 294.49 452.69 294.49 451.38 294.16 450.31 293.49 449.24 292.83 448.42 291.94 447.85 290.81 447.28 289.68 446.99 288.37 446.99 286.9 446.99 285.45 447.29 284.16 447.87 283.03 448.46 281.9 449.28 281.01 450.31 280.34 451.35 279.68 452.55 279.35 453.91 279.35 454.66 279.35 455.31 279.4 455.85 279.49 456.39 279.58 456.84 279.71 457.21 279.89 457.63 280.13 458 280.39 458.33 280.66 458.67 280.93 459.16 281.07 459.83 281.07 460.61 281.07 461.21 280.82 461.63 280.32 462.06 279.83 462.27 279.21 462.27 278.49 462.27 277.74 461.84 277.05 461 276.44 460.16 275.82 459.05 275.32 457.68 274.94 456.31 274.57 454.83 274.38 453.23 274.38 450.85 274.38 448.79 274.93 447.04 276.03 445.29 277.13 443.94 278.63 442.99 280.53 442.05 282.42 441.57 284.55 441.57 286.9 441.57 289.37 442.08 291.54 443.08 293.43 444.09 295.31 445.49 296.79 447.29 297.85 449.08 298.92 451.14 299.46 453.45 299.46ZM434.39 301.94C433.36 301.94 432.64 302.11 432.22 302.44 431.8 302.77 431.58 303.36 431.58 304.2V305.06C431.58 305.94 431.82 306.53 432.29 306.85 432.75 307.16 433.47 307.32 434.43 307.32 435.49 307.32 436.22 307.16 436.65 306.82 437.07 306.49 437.28 305.91 437.28 305.06V304.2C437.28 303.33 437.05 302.73 436.6 302.42 436.15 302.1 435.41 301.94 434.39 301.94ZM437.14 277.59C437.14 276.81 436.89 276.15 436.37 275.62 435.86 275.1 435.21 274.83 434.43 274.83 433.65 274.83 433 275.1 432.49 275.62 431.98 276.15 431.72 276.81 431.72 277.59V296.25C431.72 297.03 431.98 297.69 432.49 298.22 433 298.74 433.65 299.01 434.43 299.01 435.21 299.01 435.86 298.74 436.37 298.22 436.89 297.69 437.14 297.03 437.14 296.25ZM415.14 274.83C414.35 274.83 413.71 275.1 413.19 275.62 412.68 276.15 412.43 276.81 412.43 277.59V296.25C412.43 297.03 412.68 297.69 413.19 298.22 413.71 298.74 414.35 299.01 415.14 299.01 415.92 299.01 416.57 298.74 417.08 298.22 417.59 297.69 417.85 297.03 417.85 296.25V295.64C418.12 296.12 418.45 296.56 418.82 296.95 419.35 297.51 419.94 297.97 420.6 298.35 421.27 298.73 421.98 299.01 422.73 299.19 423.48 299.37 424.23 299.46 424.99 299.46 425.89 299.46 426.65 299.2 427.27 298.69 427.89 298.18 428.2 297.58 428.2 296.88 428.2 295.89 427.94 295.17 427.43 294.74 426.92 294.3 426.36 294.08 425.76 294.08 425.18 294.08 424.66 294.19 424.2 294.4 423.73 294.61 423.2 294.71 422.59 294.71 422.05 294.71 421.5 294.59 420.94 294.33 420.39 294.07 419.87 293.67 419.41 293.13 418.94 292.59 418.56 291.92 418.28 291.12 417.99 290.32 417.85 289.38 417.85 288.3V277.59C417.85 276.81 417.59 276.15 417.08 275.62 416.57 275.1 415.92 274.83 415.14 274.83ZM399.05 304.2C399.83 304.2 400.47 303.94 400.97 303.41 401.47 302.89 401.72 302.23 401.72 301.45V298.56H404.92C405.65 298.56 406.25 298.31 406.73 297.83 407.21 297.35 407.46 296.75 407.46 296.02 407.46 295.33 407.21 294.75 406.73 294.29 406.25 293.82 405.65 293.58 404.92 293.58H401.72V281.34C401.72 280.92 401.8 280.57 401.96 280.3 402.13 280.03 402.36 279.83 402.64 279.71 402.93 279.59 403.24 279.53 403.57 279.53 403.93 279.53 404.26 279.6 404.56 279.73 404.86 279.87 405.21 279.94 405.6 279.94 406.02 279.94 406.41 279.74 406.75 279.35 407.1 278.96 407.27 278.42 407.27 277.72 407.27 276.88 406.82 276.19 405.9 275.65 404.98 275.1 403.99 274.83 402.94 274.83 402.3 274.83 401.6 274.88 400.84 274.99 400.07 275.1 399.34 275.35 398.67 275.76 397.99 276.16 397.42 276.79 396.97 277.63 396.52 278.48 396.29 279.64 396.29 281.11V293.58H394.22C393.49 293.58 392.89 293.83 392.41 294.31 391.93 294.79 391.69 295.39 391.69 296.12 391.69 296.81 391.93 297.39 392.41 297.85 392.89 298.32 393.49 298.56 394.22 298.56H396.29V301.45C396.29 302.23 396.56 302.89 397.09 303.41 397.61 303.94 398.27 304.2 399.05 304.2ZM381.2 299.46C382.92 299.46 384.42 299.28 385.7 298.92 386.98 298.56 387.97 298.05 388.68 297.4 389.39 296.75 389.74 295.98 389.74 295.08 389.74 294.47 389.56 293.91 389.2 293.38 388.84 292.85 388.31 292.59 387.62 292.59 387.14 292.59 386.74 292.66 386.42 292.79 386.1 292.93 385.83 293.1 385.58 293.31 385.34 293.52 385.06 293.72 384.73 293.9 384.43 294.08 383.97 294.22 383.35 294.33 382.73 294.44 382.27 294.49 381.97 294.49 380.43 294.49 379.13 294.16 378.06 293.49 376.99 292.83 376.17 291.94 375.6 290.81 375.03 289.68 374.74 288.37 374.74 286.9 374.74 285.45 375.03 284.16 375.62 283.03 376.21 281.9 377.02 281.01 378.06 280.34 379.1 279.68 380.3 279.35 381.65 279.35 382.41 279.35 383.05 279.4 383.6 279.49 384.14 279.58 384.59 279.71 384.95 279.89 385.37 280.13 385.75 280.39 386.08 280.66 386.41 280.93 386.91 281.07 387.57 281.07 388.36 281.07 388.96 280.82 389.38 280.32 389.8 279.83 390.01 279.21 390.01 278.49 390.01 277.74 389.59 277.05 388.75 276.44 387.9 275.82 386.8 275.32 385.43 274.94 384.06 274.57 382.57 274.38 380.98 274.38 378.6 274.38 376.53 274.93 374.79 276.03 373.04 277.13 371.69 278.63 370.74 280.53 369.79 282.42 369.32 284.55 369.32 286.9 369.32 289.37 369.82 291.54 370.83 293.43 371.84 295.31 373.24 296.79 375.03 297.85 376.83 298.92 378.88 299.46 381.2 299.46ZM348.08 289.56H359.92V289.88C359.86 290.75 359.55 291.54 358.99 292.23 358.44 292.92 357.74 293.47 356.91 293.88 356.09 294.29 355.2 294.49 354.27 294.49 353.37 294.49 352.52 294.37 351.74 294.13 350.96 293.89 350.28 293.48 349.71 292.91 349.13 292.33 348.68 291.57 348.35 290.6 348.24 290.28 348.15 289.94 348.08 289.56ZM348.03 285.04C348.19 284.21 348.47 283.47 348.87 282.81 349.55 281.68 350.42 280.82 351.49 280.23 352.56 279.64 353.7 279.35 354.9 279.35 356.02 279.35 356.91 279.44 357.57 279.62 358.23 279.8 358.77 280.02 359.17 280.28 359.58 280.53 359.95 280.75 360.28 280.93 360.82 281.2 361.33 281.34 361.82 281.34 362.48 281.34 363.03 281.11 363.47 280.66 363.9 280.21 364.12 279.68 364.12 279.08 364.12 278.27 363.7 277.53 362.86 276.87 362.07 276.2 360.97 275.62 359.56 275.13 358.14 274.63 356.68 274.38 355.17 274.38 352.61 274.38 350.39 274.91 348.51 275.98 346.63 277.05 345.18 278.51 344.17 280.34 343.16 282.18 342.66 284.26 342.66 286.58 342.66 289.29 343.21 291.6 344.31 293.52 345.41 295.43 346.85 296.9 348.62 297.92 350.4 298.95 352.28 299.46 354.27 299.46 355.81 299.46 357.26 299.14 358.63 298.51 360 297.88 361.21 297.01 362.27 295.91 363.32 294.81 364.16 293.54 364.78 292.09 365.39 290.65 365.7 289.11 365.7 287.48 365.67 286.76 365.39 286.17 364.84 285.72 364.3 285.27 363.67 285.04 362.95 285.04ZM337.91 277.59C337.91 276.81 337.65 276.15 337.12 275.62 336.6 275.1 335.94 274.83 335.16 274.83 334.4 274.83 333.77 275.1 333.26 275.62 332.75 276.15 332.49 276.81 332.49 277.59V305.51C332.49 306.3 332.75 306.95 333.28 307.48 333.81 308.01 334.46 308.27 335.25 308.27 336.03 308.27 336.67 308.01 337.17 307.48 337.66 306.95 337.91 306.3 337.91 305.51ZM253.01 274.83C251.68 274.83 250.62 275.25 249.81 276.07 249.01 276.9 248.6 277.93 248.6 279.16V320.21C248.6 321.44 249.03 322.47 249.88 323.29 250.73 324.12 251.82 324.54 253.15 324.54 254.47 324.54 255.53 324.12 256.31 323.29 257.09 322.47 257.48 321.44 257.48 320.21V300.87L280.2 323.26C281.29 324.35 282.45 324.89 283.68 324.89 284.82 324.89 285.75 324.43 286.49 323.51 287.22 322.58 287.59 321.65 287.59 320.7 287.59 319.71 287.16 318.79 286.31 317.93L270.85 303.13 286.66 282.22C287.33 281.32 287.66 280.35 287.66 279.31 287.66 277.98 287.16 276.9 286.17 276.07 285.17 275.25 284.06 274.83 282.83 274.83 281.5 274.83 280.44 275.38 279.64 276.47L264.2 296.78 257.48 290.34V279.16C257.48 277.93 257.08 276.9 256.27 276.07 255.47 275.25 254.38 274.83 253.01 274.83ZM231.21 299.68C231.21 302.86 230.57 305.73 229.29 308.31 228.01 310.89 226.26 312.94 224.04 314.45 221.81 315.97 219.23 316.73 216.3 316.73 213.36 316.73 210.78 315.97 208.56 314.45 206.33 312.94 204.59 310.9 203.34 308.35 202.08 305.79 201.46 302.9 201.46 299.68 201.46 296.51 202.08 293.64 203.34 291.06 204.59 288.48 206.33 286.43 208.56 284.91 210.78 283.4 213.36 282.64 216.3 282.64 219.23 282.64 221.81 283.4 224.04 284.91 226.26 286.43 228.01 288.48 229.29 291.06 230.57 293.64 231.21 296.51 231.21 299.68ZM240.44 299.68C240.44 296.13 239.85 292.82 238.66 289.74 237.48 286.67 235.81 283.96 233.66 281.61 231.5 279.27 228.95 277.44 225.99 276.11 223.03 274.78 219.8 274.12 216.3 274.12 212.79 274.12 209.57 274.78 206.64 276.11 203.7 277.44 201.16 279.27 199.01 281.61 196.85 283.96 195.18 286.67 194 289.74 192.82 292.82 192.22 296.13 192.22 299.68 192.22 303.24 192.82 306.55 194 309.63 195.18 312.7 196.85 315.41 199.01 317.76 201.16 320.1 203.7 321.93 206.64 323.26 209.57 324.58 212.79 325.25 216.3 325.25 219.8 325.25 223.03 324.58 225.99 323.26 228.95 321.93 231.5 320.1 233.66 317.76 235.81 315.41 237.48 312.7 238.66 309.63 239.85 306.55 240.44 303.24 240.44 299.68ZM309.67 289.56H321.51V289.88C321.45 290.75 321.14 291.54 320.58 292.23 320.03 292.92 319.33 293.47 318.51 293.88 317.68 294.29 316.8 294.49 315.86 294.49 314.96 294.49 314.11 294.37 313.33 294.13 312.55 293.89 311.87 293.48 311.3 292.91 310.73 292.33 310.27 291.57 309.94 290.6 309.83 290.28 309.74 289.94 309.67 289.56ZM309.62 285.04C309.79 284.21 310.07 283.47 310.46 282.81 311.14 281.68 312.01 280.82 313.08 280.23 314.15 279.64 315.29 279.35 316.49 279.35 317.61 279.35 318.5 279.44 319.16 279.62 319.82 279.8 320.36 280.02 320.76 280.28 321.17 280.53 321.54 280.75 321.87 280.93 322.41 281.2 322.93 281.34 323.41 281.34 324.07 281.34 324.62 281.11 325.06 280.66 325.49 280.21 325.71 279.68 325.71 279.08 325.71 278.27 325.29 277.53 324.45 276.87 323.66 276.2 322.56 275.62 321.15 275.13 319.73 274.63 318.27 274.38 316.77 274.38 314.21 274.38 311.98 274.91 310.1 275.98 308.22 277.05 306.77 278.51 305.76 280.34 304.75 282.18 304.25 284.26 304.25 286.58 304.25 289.29 304.8 291.6 305.9 293.52 307 295.43 308.44 296.9 310.21 297.92 311.99 298.95 313.87 299.46 315.86 299.46 317.4 299.46 318.85 299.14 320.22 298.51 321.59 297.88 322.81 297.01 323.86 295.91 324.91 294.81 325.75 293.54 326.37 292.09 326.99 290.65 327.29 289.11 327.29 287.48 327.26 286.76 326.98 286.17 326.44 285.72 325.89 285.27 325.26 285.04 324.54 285.04Z" fill="#0073c6"/></g></svg>
